<svg width="1200" height="900" viewBox="0 0 1200 900" xmlns="http://www.w3.org/2000/svg" role="img" aria-label="Illustration">
  <defs>
    <linearGradient id="g" x1="0" y1="0" x2="1" y2="1">
      <stop offset="0%" stop-color="#60a5fa" stop-opacity="0.2"/>
      <stop offset="100%" stop-color="#818cf8" stop-opacity="0.2"/>
    </linearGradient>
    <radialGradient id="r" cx="50%" cy="50%" r="70%">
      <stop offset="0%" stop-color="#93c5fd" stop-opacity="0.5"/>
      <stop offset="100%" stop-color="#6366f1" stop-opacity="0.1"/>
    </radialGradient>
  </defs>
  <rect width="100%" height="100%" fill="url(#g)"/>
  <g opacity="0.6">
    <circle cx="200" cy="180" r="160" fill="url(#r)"/>
    <circle cx="1000" cy="220" r="180" fill="url(#r)"/>
    <circle cx="700" cy="700" r="220" fill="url(#r)"/>
  </g>
  <g stroke="#93c5fd" stroke-opacity="0.25">
    <path d="M0,740 C200,660 320,800 520,720 C720,640 880,780 1200,700" fill="none" stroke-width="6"/>
    <path d="M0,600 C220,520 360,660 560,580 C760,500 900,640 1200,560" fill="none" stroke-width="4"/>
    <path d="M0,460 C240,380 400,520 600,440 C800,360 960,500 1200,420" fill="none" stroke-width="3"/>
  </g>
  <g fill="#e5e7eb" fill-opacity="0.35">
    <rect x="280" y="190" width="640" height="420" rx="24"/>
    <rect x="320" y="240" width="560" height="48" rx="10"/>
    <rect x="320" y="308" width="360" height="18" rx="6"/>
    <rect x="320" y="348" width="520" height="18" rx="6"/>
    <rect x="320" y="388" width="440" height="18" rx="6"/>
    <rect x="320" y="470" width="260" height="44" rx="10"/>
    <rect x="592" y="470" width="288" height="44" rx="10"/>
  </g>
</svg>
